<svg xmlns="http://www.w3.org/2000/svg" version="1.1" xmlns:xlink="http://www.w3.org/1999/xlink" xmlns:svgjs="http://svgjs.com/svgjs" width="1440" height="1440" preserveAspectRatio="none" viewBox="0 0 1440 1440"><g mask="url(&quot;#SvgjsMask2414&quot;)" fill="none"><use xlink:href="#SvgjsG2429" transform="translate(0, 0)" fill="rgba(219, 220, 221, 1)"></use></g><defs><mask id="SvgjsMask2414"><rect width="1440" height="1440" fill="#ffffff"></rect></mask><g id="SvgjsG2415"><path d="M3.474 10.969C3.474 7.665 8.077 0.361 8.077 0.361s4.602 7.305 4.602 10.608c0 2.247-1.506 4.771-4.602 4.771-3.095 0-4.603-2.524-4.603-4.771z" fill-rule="evenodd"></path></g><g id="SvgjsG2416"><path d="M11.986 8.245a46.749 46.749 0 0 1-0.521-0.411c-0.146-0.116-0.293-0.233-0.44-0.348-0.88-0.688-1.797-1.316-2.816-1.407A2.815 2.815 0 0 0 7.954 6.067c-0.086 0-0.171 0.011-0.255 0.018-1.022 0.093-1.942 0.717-2.826 1.408l0.093 0.073c0.108 0.085 0.213 0.168 0.32 0.252C6.165 7.137 7.021 6.576 7.954 6.576c0.93 0 1.784 0.558 2.66 1.236a35.098 35.098 0 0 1 0.535 0.421c0.142 0.113 0.283 0.226 0.426 0.338C12.532 9.32 13.531 10 14.658 10c0.437 0 0.854-0.104 1.257-0.273v-0.557c-0.409 0.197-0.825 0.32-1.257 0.32-0.934 0-1.792-0.563-2.672-1.245z"></path><path d="M11.574 7.496c0.029 0.023 0.059 0.046 0.088 0.07 0.109 0.087 0.216 0.17 0.325 0.256 0.318-0.246 0.635-0.476 0.952-0.67v1.37c0.17 0.111 0.34 0.214 0.51 0.301V6.878c0.315-0.147 0.634-0.248 0.96-0.283v2.537c0.078 0.01 0.157 0.018 0.237 0.018 0.091 0 0.183-0.009 0.273-0.021V6.592c0.34 0.037 0.67 0.144 0.996 0.3V6.336C15.514 6.17 15.099 6.067 14.664 6.067c-1.128 0-2.13 0.68-3.09 1.429z m-7.248 1.08c-0.034-0.027-0.068-0.053-0.102-0.08-0.104-0.083-0.207-0.162-0.31-0.245-0.877 0.678-1.733 1.238-2.665 1.238C0.82 9.49 0.407 9.36 0 9.152v0.562C0.401 9.891 0.815 10 1.249 10c1.124 0 2.122-0.677 3.077-1.423z"></path><path d="M0.989 9.133c0.084 0.011 0.17 0.019 0.254 0.02 0.086 0 0.171-0.008 0.256-0.02V6.592c0.329 0.035 0.65 0.136 0.967 0.285-0.002 0.012-0.007 0.023-0.007 0.036v1.903a5.818 5.818 0 0 0 0.51-0.303V7.152c0.487 0.3 0.971 0.684 1.467 1.08C5.525 9.101 6.652 10 7.948 10c1.123 0 2.121-0.675 3.078-1.42l-0.106-0.084c-0.103-0.082-0.205-0.161-0.306-0.242-0.313 0.242-0.622 0.466-0.934 0.658V7.564A5.816 5.816 0 0 0 9.17 7.261v1.893c0 0.01 0.004 0.019 0.005 0.029-0.316 0.149-0.637 0.252-0.965 0.288V6.937a1.97 1.97 0 0 0-0.267-0.02c-0.082 0-0.163 0.008-0.243 0.017v2.541c-0.33-0.035-0.652-0.136-0.969-0.283 0.002-0.013 0.006-0.024 0.006-0.039V7.248a5.629 5.629 0 0 0-0.51 0.302v1.368c-0.49-0.299-0.976-0.686-1.474-1.083C3.666 6.966 2.539 6.067 1.243 6.067c-0.432 0-0.844 0.096-1.243 0.251v0.55c0.324-0.144 0.652-0.244 0.989-0.278V9.133z"></path></g><g id="SvgjsG2417"><path d="M0.01 10.187H13.166v1.036H0.011z"></path><path d="M9.787 12.984c0-0.69-3.039-0.621-3.039 0.009v2.336c-0.03 0.322 0.203 0.637 0.526 0.637h8.14a0.585 0.585 0 0 0 0.586-0.585L16 7.986C16 3.339 12.011-0.397 7.276 0.034a0.586 0.586 0 0 0-0.53 0.636v2.517h3.041V1.404c2.907 0.78 5.042 3.434 5.044 6.58-0.01 3.144-2.134 5.81-5.042 6.585v-1.585z"></path><path d="M10.812 8.003a1.31 1.31 0 0 1 1.31-1.31c0.723 0 1.312 0.586 1.312 1.31 0 0.722-0.589 1.311-1.312 1.311-0.724 0-1.31-0.589-1.31-1.311zM9.136 6.647H4.745L0 7.373V9.312l3.452 0.001a1.099 1.099 0 0 1-0.168-0.58c0-0.611 0.498-1.109 1.108-1.108h2.405l1.949-0.407 0.109 0.517-2.003 0.418h-2.459a0.58 0.58 0 0 0-0.008 1.159H9.146c0.738-0.006 1.328-0.599 1.328-1.332a1.335 1.335 0 0 0-1.338-1.335z"></path></g><g id="SvgjsG2418"><path d="M13.82 13.722c0.417-0.509 0.563-1.217 0.321-1.881l-0.22-0.607h1.332V0H0.8v11.234h7.773l0.847 2.326a1.922 1.922 0 0 0 1.455 1.234l0.399 1.206 3.335 0-0.789-2.278z m-1.212-6.07c-0.712 0.259-1.08 1.048-0.821 1.762l0.514 1.402H1.218V0.419h13.618v10.396h-1.07l-1.158-3.163z"></path><path d="M8.649 6.424v0.802H10.992c0.098 0 0.241 0.087 0.241 0.241 0 1.365-0.172 2.01-0.891 2.01-0.748 0-0.901-1.619-1.693-1.724v1.547h-1.253V7.75c-0.832 0.062-0.966 1.726-1.742 1.727-0.719 0-0.852-0.645-0.852-2.01 0-0.153 0.143-0.241 0.241-0.241h2.353v-0.802H4.96c-0.14 0-0.254-0.113-0.255-0.253s0.114-0.253 0.255-0.253h2.436V5.115h-2.742a0.254 0.254 0 0 1 0-0.507h2.742v-0.802h-2.574c-0.139 0-0.253-0.114-0.253-0.254 0-0.14 0.114-0.254 0.253-0.254h2.574V2.496h-2.016a0.254 0.254 0 0 1 0-0.508h2.016v-0.443h1.253v0.443h2.016c0.14 0 0.254 0.115 0.254 0.255S10.805 2.496 10.665 2.496h-2.016v0.802H11.23a0.254 0.254 0 0 1 0 0.508H8.649v0.802h2.75a0.254 0.254 0 0 1 0 0.507h-2.75v0.802h2.437a0.253 0.253 0 0 1 0 0.507h-2.437z"></path></g><g id="SvgjsG2419"><path d="M11.318 9.025V16h3.529V0H11.318v5.573h-6.589V0H1.2v16h3.529V9.025h6.589z"></path></g><g id="SvgjsG2420"><path d="M14.885 8.725h-1.479v5.687c0.01 1.007 1.48 1.007 1.479 0V8.725z m-1.69 0h-1.479v5.687c0.006 1 1.476 1 1.479 0V8.725z m-3.593 0h-1.479v5.687c0.009 1.007 1.48 1.007 1.479 0V8.725z m-1.691 0h-1.479v5.687c0.006 1 1.477 1 1.479 0V8.725z m-3.592 0h-1.479v5.687c0.009 1.007 1.48 1.007 1.479 0V8.725z m-1.69 0h-1.479v5.687c0.005 1 1.477 1 1.479 0V8.725z"></path><path d="M15.828 8.303a0.57 0.57 0 0 1-0.578 0.577s-3.866 0.005-3.88 0a0.576 0.576 0 0 1-0.576-0.577V4.096a0.793 0.793 0 0 1 0.806-0.807c-0.005-0.005 3.419 0 3.418 0a0.792 0.792 0 0 1 0.808 0.807v4.206h0.001zM13.329 2.944c0.606 0 1.099-0.494 1.095-1.096A1.1 1.1 0 0 0 13.329 0.734a1.119 1.119 0 0 0-1.114 1.114 1.113 1.113 0 0 0 1.114 1.096z m-2.785 5.359a0.567 0.567 0 0 1-0.576 0.577s-3.866 0.005-3.881 0a0.576 0.576 0 0 1-0.576-0.577V4.096a0.794 0.794 0 0 1 0.807-0.807c-0.005-0.005 3.419 0 3.419 0a0.791 0.791 0 0 1 0.807 0.807v4.206zM8.047 2.944c0.605 0 1.099-0.494 1.094-1.096A1.1 1.1 0 0 0 8.047 0.734a1.12 1.12 0 0 0-1.115 1.114 1.114 1.114 0 0 0 1.114 1.096z m-2.787 5.359a0.568 0.568 0 0 1-0.576 0.577s-3.866 0.005-3.88 0a0.576 0.576 0 0 1-0.576-0.577V4.096a0.793 0.793 0 0 1 0.807-0.808c-0.005-0.005 3.42 0 3.419 0a0.791 0.791 0 0 1 0.807 0.807v4.207zM2.763 2.944c0.606 0 1.1-0.494 1.096-1.096A1.1 1.1 0 0 0 2.763 0.734a1.118 1.118 0 0 0-1.113 1.114A1.112 1.112 0 0 0 2.763 2.944z"></path></g><g id="SvgjsG2421"><path d="M8.564 1.79a0.892 0.892 0 0 0 0.892-0.892A0.892 0.892 0 0 0 8.564 0.006a0.892 0.892 0 0 0 0 1.784z m-4.837 0.006c-0.5 0-0.904-0.402-0.904-0.899C2.824 0.402 3.227 0 3.728 0c0.5 0 0.905 0.402 0.905 0.898s-0.405 0.898-0.905 0.897z"></path><path d="M12.368 4.611a0.625 0.625 0 1 0 1.251 0 0.625 0.625 0 1 0-1.251 0"></path><path d="M13.9 5.546H12.212c-0.008 0-0.564-0.051-0.564-0.051l-0.707-2.464C10.656 2.04 9.824 2.07 9.824 2.07H7.538s-0.83-0.03-1.116 0.961l-0.348 1.213-0.348-1.213c-0.286-0.991-1.115-0.961-1.116-0.961h-1.769s-0.831-0.03-1.115 0.961L1.013 5.514c-0.068 0.232 0.059 0.409 0.262 0.467 0.203 0.058 0.41-0.044 0.463-0.229l0.693-2.42 0.339 0-1.013 4.189h0.895v2.975a0.443 0.443 0 0 0 0.443 0.445 0.446 0.446 0 0 0 0.446-0.445V7.521h0.376v2.975a0.444 0.444 0 0 0 0.443 0.445 0.445 0.445 0 0 0 0.445-0.445V7.52h0.88l-1.002-4.189 0.337 0.001 0.685 2.394c0.011 0.041 0.03 0.078 0.053 0.111 0.067 0.101 0.185 0.158 0.316 0.153 0.13 0.004 0.247-0.052 0.314-0.152a0.325 0.325 0 0 0 0.058-0.123l0.682-2.382 0.312-0.001v7.079a0.525 0.525 0 0 0 0.526 0.523 0.523 0.523 0 0 0 0.523-0.523v-4.028h0.387v4.028a0.523 0.523 0 0 0 0.522 0.523c0.29 0 0.526-0.234 0.526-0.523v-7.079l0.339 0.001 0.664 2.419c0.035 0.12 0.136 0.198 0.254 0.228 0.005 0.001 0.008 0.005 0.013 0.005 0.106 0.024 0.593 0.162 0.952 0.265v4.39a0.368 0.368 0 0 0 0.736 0v-2.194h0.287v2.193c0 0.203 0.164 0.368 0.367 0.368s0.369-0.165 0.369-0.368v-4.1h0.283v1.39c0 0.151 0.123 0.275 0.273 0.275 0.151 0 0.27-0.124 0.271-0.275V6.347c0-0.442-0.389-0.802-0.832-0.801z m-1.914 8.699a46.749 46.749 0 0 1-0.521-0.411c-0.146-0.116-0.293-0.233-0.44-0.348-0.882-0.688-1.798-1.316-2.817-1.407a2.815 2.815 0 0 0-0.255-0.012c-0.086 0-0.171 0.011-0.255 0.018-1.022 0.093-1.942 0.717-2.826 1.408l0.093 0.073c0.108 0.085 0.213 0.168 0.32 0.252 0.878-0.681 1.734-1.242 2.668-1.242 0.93 0 1.784 0.558 2.66 1.236a35.098 35.098 0 0 1 0.533 0.421c0.141 0.113 0.283 0.226 0.426 0.338C12.531 15.32 13.53 16 14.658 16c0.437 0 0.854-0.104 1.256-0.273v-0.557c-0.409 0.197-0.825 0.32-1.257 0.32-0.934 0-1.792-0.563-2.672-1.245z"></path><path d="M11.574 13.496c0.029 0.023 0.059 0.046 0.088 0.07 0.109 0.087 0.216 0.17 0.325 0.256 0.318-0.246 0.635-0.476 0.952-0.67v1.37c0.17 0.111 0.34 0.214 0.51 0.301V12.878c0.315-0.147 0.634-0.248 0.96-0.283v2.537c0.078 0.01 0.157 0.018 0.237 0.018 0.091 0 0.183-0.009 0.273-0.021v-2.537c0.34 0.037 0.67 0.144 0.996 0.3v-0.555c-0.401-0.167-0.816-0.27-1.251-0.27-1.128 0-2.13 0.68-3.09 1.429z m-7.248 1.08c-0.034-0.027-0.068-0.053-0.102-0.08-0.104-0.083-0.207-0.162-0.31-0.245-0.877 0.678-1.733 1.238-2.665 1.238C0.82 15.49 0.407 15.36 0 15.152v0.562C0.401 15.891 0.815 16 1.249 16c1.124 0 2.122-0.677 3.077-1.423z"></path><path d="M0.989 15.133c0.084 0.011 0.17 0.019 0.254 0.02 0.086 0 0.171-0.008 0.256-0.02V12.592c0.329 0.035 0.65 0.136 0.967 0.285-0.002 0.012-0.007 0.023-0.007 0.036v1.903a5.818 5.818 0 0 0 0.51-0.303V13.152c0.487 0.3 0.971 0.684 1.467 1.08C5.525 15.101 6.652 16 7.948 16c1.123 0 2.121-0.675 3.078-1.42l-0.106-0.084c-0.103-0.082-0.205-0.161-0.306-0.242-0.313 0.242-0.622 0.466-0.934 0.658v-1.348a5.816 5.816 0 0 0-0.511-0.303v1.894c0 0.011 0.003 0.019 0.005 0.03-0.317 0.149-0.637 0.251-0.966 0.288V12.938a1.97 1.97 0 0 0-0.267-0.021c-0.082 0-0.163 0.008-0.243 0.018V15.475c-0.33-0.035-0.652-0.135-0.969-0.283 0.002-0.013 0.007-0.024 0.007-0.038v-1.905a5.549 5.549 0 0 0-0.51 0.301v1.368c-0.49-0.3-0.976-0.686-1.474-1.084-1.089-0.869-2.214-1.768-3.51-1.767-0.432 0-0.844 0.096-1.244 0.251v0.55c0.324-0.144 0.652-0.244 0.989-0.277v2.542z"></path></g><g id="SvgjsG2422"><path d="M0.004 9.454h10.114v0.948H0.004zM7.942 7.461a1.2 1.2 0 0 1 1.2-1.2c0.661 0 1.2 0.537 1.2 1.2 0 0.661-0.539 1.2-1.2 1.2-0.662 0-1.2-0.539-1.2-1.2z m-1.534-1.242H2.389L0 6.585V8.659l1.206 0.001a1.006 1.006 0 0 1-0.154-0.53 1.016 1.016 0 0 1 1.015-1.015h2.201l1.784-0.373 0.099 0.474-1.833 0.383H2.067a0.531 0.531 0 0 0-0.531 0.531 0.53 0.53 0 0 0 0.524 0.53l4.358 0c0.674-0.005 1.214-0.548 1.214-1.219a1.222 1.222 0 0 0-1.224-1.222z"></path><path d="M8.488 12.947c2.681 0 4.854-2.173 4.853-4.855 0-2.681-2.173-4.854-4.853-4.854-1.752 0-3.284 0.933-4.138 2.326h2.033a3.285 3.285 0 0 1 2.117-0.77c1.822 0 3.299 1.477 3.299 3.299 0 1.822-1.477 3.299-3.299 3.299a3.282 3.282 0 0 1-1.439-0.334H4.651c0.888 1.147 2.274 1.889 3.836 1.889z"></path><path d="M8.488 0.56C5.166 0.56 2.35 2.717 1.358 5.706l0.926-0.144 1.502 0.001C4.688 3.89 6.455 2.754 8.488 2.754c2.949 0 5.339 2.39 5.338 5.339S11.436 13.432 8.488 13.432c-1.851 0-3.482-0.943-4.44-2.375H1.594c1.154 2.663 3.806 4.528 6.893 4.528 4.149 0 7.513-3.363 7.513-7.513C16 3.924 12.636 0.56 8.488 0.56zM10.192 2.268a0.238 0.238 0 0 1-0.288 0.174 5.833 5.833 0 0 0-2.808 0c-0.127 0.034-0.257-0.046-0.289-0.173a0.238 0.238 0 0 1 0.174-0.289 6.3 6.3 0 0 1 3.038 0 0.238 0.238 0 0 1 0.173 0.288z"></path></g><g id="SvgjsG2423"><path d="M0.67 1.404v3.335h-0.499A0.171 0.171 0 0 1 0 4.567V0.264C0 0.119 0.109 0 0.258 0h2.204C2.611 0 2.72 0.118 2.72 0.264v0.252h3.409c0.095 0 0.171 0.076 0.171 0.171v0.968h-2.91V1.402c0-0.145-0.108-0.264-0.258-0.264H0.928c-0.149 0-0.258 0.12-0.258 0.266z"></path><path d="M7.641 6.758c0 0.094-0.076 0.17-0.172 0.17H1.512c-0.095 0-0.171-0.076-0.172-0.17V2.454c0-0.146 0.109-0.264 0.258-0.264h2.205c0.149 0 0.258 0.118 0.258 0.264v0.253h3.408c0.095 0 0.171 0.076 0.172 0.17v3.881zM4.998 4.308v-1.015h-1.015v1.015h-1.016v1.016h1.016v1.015h1.015v-1.015h1.015v-1.016h-1.014z m3.86-1.638v12.994H16V2.67H8.858zM15.552 13.826H9.305V8.918H15.552v4.908z m0-5.789H9.305V3.13H15.552v4.907z"></path><path d="M15.099 3.548H9.753v4.073h5.346V3.548zM13.296 4.914H11.536c-0.137 0-0.248-0.11-0.248-0.249 0-0.137 0.111-0.248 0.248-0.248h1.76a0.248 0.248 0 0 1 0 0.496z m1.806 4.421h-5.346v4.072h5.346v-4.072z m-1.806 1.367H11.536a0.248 0.248 0 0 1 0-0.497h1.76a0.248 0.248 0 0 1 0 0.497z"></path></g><g id="SvgjsG2424"><path d="M8.076 3.995c-1.111 0-2.014-0.895-2.014-1.998C6.062 0.894 6.964 0 8.076 0c1.112 0 2.013 0.894 2.013 1.997 0 1.103-0.902 1.998-2.013 1.998zM14.11 12.267l-1.585-5.521C11.891 4.539 10.044 4.607 10.044 4.607H6.107s-1.847-0.069-2.48 2.138L2.041 12.267c-0.151 0.516 0.133 0.91 0.584 1.04 0.45 0.129 0.91-0.098 1.029-0.511l1.541-5.382 0.753-0.001L3.485 16H12.666L10.202 7.413l0.752 0.001 1.542 5.382c0.118 0.413 0.579 0.64 1.03 0.511 0.451-0.129 0.736-0.523 0.584-1.04z m-3.058 0.247c0 1.644-1.333 2.977-2.976 2.976-1.644 0-2.977-1.333-2.977-2.976 0-1.645 1.333-2.977 2.977-2.977 1.643 0 2.976 1.332 2.976 2.977z"></path><path d="M8.716 11.789a0.714 0.714 0 0 1-0.34-0.953 0.716 0.716 0 0 1 0.952-0.339 0.716 0.716 0 0 1 0.34 0.953 0.714 0.714 0 0 1-0.952 0.339z m0.666 0.996a361.536 361.536 0 0 1-0.523 1.103c-0.211 0.445-0.745 0.635-1.193 0.425-0.145-0.07-0.256-0.178-0.349-0.294-0.141-0.179-0.236-0.656-0.236-0.656-0.149 0.104-0.528 0.344-0.686 0.456a0.318 0.318 0 0 1-0.442-0.077 0.316 0.316 0 0 1 0.076-0.441 133.402 133.402 0 0 1 0.852-0.585 0.421 0.421 0 0 1 0.588 0.101l0.266 0.541 0.424-0.855-0.37-0.108a0.308 0.308 0 0 1-0.187-0.155l-0.363-0.696a0.309 0.309 0 1 1 0.547-0.286L8.088 11.84c0.198 0.059 1.01 0.294 1.01 0.294 0.043 0.014 0.081 0.038 0.114 0.068a0.458 0.458 0 0 1 0.169 0.582z"></path></g><g id="SvgjsG2425"><path d="M7.717 12.464a0.453 0.453 0 0 0-0.64 0L4.945 14.594l-0.265-0.265 2.859-2.855a0.453 0.453 0 1 0-0.641-0.64L4.04 13.69l-0.265-0.266 3.325-3.322a0.453 0.453 0 0 0 0.001-0.641 0.452 0.452 0 0 0-0.64 0L3.135 12.783l-0.265-0.265L5.48 9.91a0.453 0.453 0 0 0 0-0.64 0.452 0.452 0 0 0-0.64 0L1.482 12.621c-0.002-0.324-0.005-0.908-0.005-1.435 0-0.732-0.925-0.84-0.971-0.79C0.461 10.45 0 15.533 0 15.533h5.294l0.294-0.295-0.003-0.003 2.132-2.131a0.453 0.453 0 0 0 0-0.642z"></path><path d="M10.099 0C7.423 0 4.956 2.008 4.443 4.219c-0.115 0.493-0.244 1.777-0.244 1.777l-1.23 3.1c-0.024 0.057-0.037 0.119-0.037 0.185a0.475 0.475 0 0 0 0.475 0.475h0.42l0.75-0.75a0.826 0.826 0 0 1 1.167 0.001 0.826 0.826 0 0 1 0.226 0.42l0.23-0.229a0.824 0.824 0 0 1 1.166 0c0.316 0.316 0.32 0.823 0.016 1.147a0.825 0.825 0 0 1 0.422 1.392l-0.24 0.239a0.818 0.818 0 0 1 0.418 0.224 0.826 0.826 0 0 1 0 1.166l-0.531 0.532v1.635H13.747V10.529C15.117 9.451 16 7.776 16 5.896 16 2.639 13.36 0 10.099 0z m-4.448 7.173a0.658 0.658 0 0 1 0-1.316 0.658 0.658 0 0 1 0.658 0.659 0.658 0.658 0 0 1-0.658 0.658z m3.08 1.534c0.164 0 0.3 0.135 0.3 0.298a0.301 0.301 0 0 1-0.3 0.3 0.3 0.3 0 0 1-0.3-0.3c0-0.164 0.134-0.299 0.3-0.298zM8.552 10.579a0.3 0.3 0 0 1 0-0.6 0.301 0.301 0 0 1 0.3 0.301 0.3 0.3 0 0 1-0.3 0.299z m0.64 1.289a0.45 0.45 0 0 1-0.412-0.486 0.45 0.45 0 0 1 0.487-0.408 0.448 0.448 0 0 1 0.408 0.485c-0.022 0.248-0.238 0.432-0.483 0.409z m0.432-1.795c-0.251 0-0.45-0.201-0.45-0.449s0.199-0.446 0.45-0.446c0.246 0 0.446 0.2 0.446 0.448s-0.2 0.448-0.446 0.448z m0.637 0.939a0.3 0.3 0 0 1-0.303-0.3 0.301 0.301 0 0 1 0.301-0.298 0.299 0.299 0 0 1 0 0.598z m0.668-1.741h-0.105V8.736l0.103-0.001c0.668-0.001 1.212-0.545 1.215-1.212-0.002-0.667-0.547-1.211-1.214-1.213l-0.104-0.001V5.776h0.105c0.965 0 1.749 0.783 1.748 1.747s-0.784 1.747-1.748 1.747z"></path></g><g id="SvgjsG2426"><path d="M7.634 3.849c0.822 0 1.487-0.665 1.487-1.485S8.456 0.88 7.634 0.88c-0.821 0-1.487 0.664-1.488 1.484s0.666 1.485 1.488 1.485zM12.166 13.885H0.308c-0.334 0-0.3 0.262-0.3 0.262v0.437s-0.03 0.568 0.553 0.568h14.848c0.587 0 0.555-0.555 0.555-0.555v-1.209s-0.05-0.383-0.5-0.383h-1.448c-0.496 0-0.906 0.88-1.851 0.88z m1.153-2.681c0 0.738 0.6 1.337 1.34 1.336 0.739 0 1.341-0.599 1.341-1.336 0-0.74-0.602-1.338-1.341-1.338-0.74 0-1.34 0.597-1.34 1.338zM8.939 8.653a0.953 0.953 0 0 1-0.573 0.596L7.173 9.691l0.44 0.437h2.015l-0.002-3.083-0.674 1.59c-0.003 0.008-0.009 0.012-0.013 0.018z"></path><path d="M11.832 10.861H7.667l-1.004-0.981-0.699 0.258c-0.518 0.185-1.15-0.098-1.345-0.613-0.115-0.32-0.099-0.677 0.093-0.937-0.086-0.004-2.526 0-2.526 0-0.406 0-0.736 0.326-0.736 0.731 0 0.406 0.33 0.723 0.736 0.723h2.484l0.986 1.491-5.087 0.409A0.734 0.734 0 0 0 0 12.657a0.734 0.734 0 0 0 0.733 0.736l5.707 0a1.044 1.044 0 0 1-0.159-0.549 1.054 1.054 0 0 1 1.053-1.054h2.283l1.852-0.386 0.102 0.491-1.901 0.397H7.335a0.551 0.551 0 0 0-0.551 0.552 0.55 0.55 0 0 0 0.54 0.549l4.518 0.001c0.699-0.005 1.26-0.569 1.26-1.266a1.267 1.267 0 0 0-1.27-1.267z"></path><path d="M5.876 9.678a0.582 0.582 0 0 1-0.767-0.299 0.582 0.582 0 0 1 0.299-0.768l2.12-0.796 0.656-1.563-0.427-0.158L7.2 7.433l-1.614 0.595V6.392l-1.578 1.723-1.786-0.002s3.125-3.426 3.223-3.528c0.13-0.129 0.426-0.342 0.984-0.341h2.006c1.14 0 1.36 1.137 1.127 1.724L8.512 8.513a0.591 0.591 0 0 1-0.338 0.319l-2.298 0.846z"></path></g><g id="SvgjsG2427"><path d="M12.59 14.197a0.759 0.759 0 0 1-0.759 0.759 0.758 0.758 0 0 1-0.759-0.759v-0.663h1.518v0.663zM10.588 16H8.429l0.003-1.065h-0.723L7.707 16H5.545V13.534h5.043zM5.043 14.197a0.758 0.758 0 0 1-0.759 0.759 0.759 0.759 0 0 1-0.759-0.759v-0.663h1.518v0.663zM8.058 0c1.083 0 1.961 0.878 1.961 1.962 0 1.083-0.878 1.961-1.961 1.961-1.084 0-1.962-0.878-1.962-1.961C6.097 0.878 6.974 0 8.058 0z m5.578 12.77H2.48V6.25h11.156v6.52zM11.894 6.789h-7.629v5.451h7.629V6.789z"></path><path d="M8.429 10.011v0.479h1.397c0.058 0 0.144 0.052 0.144 0.142 0 0.815-0.102 1.199-0.532 1.199-0.445 0-0.537-0.964-1.01-1.027v0.922h-0.746V10.802c-0.496 0.038-0.576 1.029-1.038 1.029-0.429 0-0.508-0.384-0.509-1.199 0-0.09 0.086-0.142 0.144-0.142h1.403V10.011h-1.453a0.151 0.151 0 0 1 0-0.301h1.453v-0.478H6.047a0.151 0.151 0 0 1-0.151-0.152c0-0.083 0.068-0.151 0.151-0.151h1.635V8.451h-1.534a0.151 0.151 0 0 1-0.152-0.151c0-0.083 0.068-0.152 0.151-0.152h1.535V7.67H6.48a0.151 0.151 0 0 1-0.151-0.15c0-0.084 0.067-0.152 0.151-0.153h1.202v-0.264h0.747v0.264h1.202a0.152 0.152 0 0 1 0 0.303H8.429v0.478h1.539c0.084 0 0.152 0.069 0.152 0.152a0.151 0.151 0 0 1-0.152 0.151H8.429v0.478h1.64a0.152 0.152 0 0 1 0.151 0.151 0.151 0.151 0 0 1-0.151 0.152H8.429v0.478h1.453a0.151 0.151 0 0 1 0 0.301h-1.453z m1.915-5.609h-4.506c-0.815 0-1.57 0.435-1.994 1.084H12.272c-0.397-0.649-1.114-1.084-1.928-1.084z"></path></g><g id="SvgjsG2428"><path d="M7.394 7.981c-0.294 0.274-2.653 2.562-2.653 2.562l0.629 0.621S7.466 9.23 7.78 8.938c0.078-0.072 0.21-0.21 0.454-0.21h7.147V7.739H7.986c-0.216 0-0.421 0.085-0.592 0.242zM11.628 2.602c0.838 0 1.295-0.58 1.295-1.295 0-0.715-0.58-1.294-1.295-1.295a1.295 1.295 0 0 0 0 2.59zM9.707 4.828h0.434l-0.636 2.286H13.75l-0.636-2.286h0.434l0.66 2.286h1.123L14.429 4.08c-0.119-0.419-0.649-1.161-1.567-1.161H10.392c-0.917 0-1.446 0.742-1.566 1.161l-0.901 3.034h1.123l0.659-2.286zM6.035 6.994l-0.55-1.026-0.59-1.1s-0.067-0.101-0.191-0.041c-0.112 0.054-0.061 0.18-0.061 0.18l0.378 0.722 0.235 0.449-0.271-0.122c-0.481-0.217-0.746-0.309-0.852-0.357-0.019-0.009-0.112-0.06-0.157-0.157-0.126-0.282-0.664-1.643-0.784-1.944-0.102-0.255-0.354-0.616-0.871-0.745-0.589-0.146-1.182 0.226-1.323 0.817l-0.803 3.386C0.123 7.329 0 8.068 0 8.38s0.005 6.615 0.005 6.614c0.004 0.558 0.407 1.008 0.964 1.006 0.557-0.002 0.938-0.456 0.936-1.013 0 0 0-3.602-0.001-5.604l0.857-3.617c0.1 0.244 0.224 0.542 0.264 0.614 0.097 0.169 0.192 0.285 0.387 0.377 0 0 1.122 0.464 1.556 0.662a0.622 0.622 0 0 0 0.71-0.197l0.06-0.124 0.021 0.04s0.128 0.225 0.317 0.235c0.054-0.172-0.04-0.379-0.041-0.379z"></path><path d="M1.711 1.295a1.296 1.296 0 1 0 2.591 0 1.296 1.296 0 1 0-2.591 0"></path><path d="M4.885 9.748l2.524-2.349-0.328-0.352L4.557 9.396z"></path></g><g id="SvgjsG2429"><use xlink:href="#SvgjsG2415" transform="translate(0, 0) scale(3)" fill="rgba(219, 220, 221, 1)"></use><use xlink:href="#SvgjsG2416" transform="translate(0, 144) scale(3)" fill="rgba(219, 220, 221, 1)"></use><use xlink:href="#SvgjsG2417" transform="translate(0, 288) scale(3)" fill="rgba(219, 220, 221, 1)"></use><use xlink:href="#SvgjsG2418" transform="translate(0, 432) scale(3)" fill="rgba(219, 220, 221, 1)"></use><use xlink:href="#SvgjsG2419" transform="translate(0, 576) scale(3)" fill="rgba(219, 220, 221, 1)"></use><use xlink:href="#SvgjsG2420" transform="translate(0, 720) scale(3)" fill="rgba(219, 220, 221, 1)"></use><use xlink:href="#SvgjsG2421" transform="translate(0, 864) scale(3)" fill="rgba(219, 220, 221, 1)"></use><use xlink:href="#SvgjsG2422" transform="translate(0, 1008) scale(3)" fill="rgba(219, 220, 221, 1)"></use><use xlink:href="#SvgjsG2423" transform="translate(0, 1152) scale(3)" fill="rgba(219, 220, 221, 1)"></use><use xlink:href="#SvgjsG2424" transform="translate(0, 1296) scale(3)" fill="rgba(219, 220, 221, 1)"></use><use xlink:href="#SvgjsG2416" transform="translate(144, 0) scale(3)" fill="rgba(219, 220, 221, 1)"></use><use xlink:href="#SvgjsG2417" transform="translate(144, 144) scale(3)" fill="rgba(219, 220, 221, 1)"></use><use xlink:href="#SvgjsG2418" transform="translate(144, 288) scale(3)" fill="rgba(219, 220, 221, 1)"></use><use xlink:href="#SvgjsG2419" transform="translate(144, 432) scale(3)" fill="rgba(219, 220, 221, 1)"></use><use xlink:href="#SvgjsG2420" transform="translate(144, 576) scale(3)" fill="rgba(219, 220, 221, 1)"></use><use xlink:href="#SvgjsG2421" transform="translate(144, 720) scale(3)" fill="rgba(219, 220, 221, 1)"></use><use xlink:href="#SvgjsG2422" transform="translate(144, 864) scale(3)" fill="rgba(219, 220, 221, 1)"></use><use xlink:href="#SvgjsG2423" transform="translate(144, 1008) scale(3)" fill="rgba(219, 220, 221, 1)"></use><use xlink:href="#SvgjsG2424" transform="translate(144, 1152) scale(3)" fill="rgba(219, 220, 221, 1)"></use><use xlink:href="#SvgjsG2425" transform="translate(144, 1296) scale(3)" fill="rgba(219, 220, 221, 1)"></use><use xlink:href="#SvgjsG2417" transform="translate(288, 0) scale(3)" fill="rgba(219, 220, 221, 1)"></use><use xlink:href="#SvgjsG2418" transform="translate(288, 144) scale(3)" fill="rgba(219, 220, 221, 1)"></use><use xlink:href="#SvgjsG2419" transform="translate(288, 288) scale(3)" fill="rgba(219, 220, 221, 1)"></use><use xlink:href="#SvgjsG2420" transform="translate(288, 432) scale(3)" fill="rgba(219, 220, 221, 1)"></use><use xlink:href="#SvgjsG2421" transform="translate(288, 576) scale(3)" fill="rgba(219, 220, 221, 1)"></use><use xlink:href="#SvgjsG2422" transform="translate(288, 720) scale(3)" fill="rgba(219, 220, 221, 1)"></use><use xlink:href="#SvgjsG2423" transform="translate(288, 864) scale(3)" fill="rgba(219, 220, 221, 1)"></use><use xlink:href="#SvgjsG2424" transform="translate(288, 1008) scale(3)" fill="rgba(219, 220, 221, 1)"></use><use xlink:href="#SvgjsG2425" transform="translate(288, 1152) scale(3)" fill="rgba(219, 220, 221, 1)"></use><use xlink:href="#SvgjsG2426" transform="translate(288, 1296) scale(3)" fill="rgba(219, 220, 221, 1)"></use><use xlink:href="#SvgjsG2418" transform="translate(432, 0) scale(3)" fill="rgba(219, 220, 221, 1)"></use><use xlink:href="#SvgjsG2419" transform="translate(432, 144) scale(3)" fill="rgba(219, 220, 221, 1)"></use><use xlink:href="#SvgjsG2420" transform="translate(432, 288) scale(3)" fill="rgba(219, 220, 221, 1)"></use><use xlink:href="#SvgjsG2421" transform="translate(432, 432) scale(3)" fill="rgba(219, 220, 221, 1)"></use><use xlink:href="#SvgjsG2422" transform="translate(432, 576) scale(3)" fill="rgba(219, 220, 221, 1)"></use><use xlink:href="#SvgjsG2423" transform="translate(432, 720) scale(3)" fill="rgba(219, 220, 221, 1)"></use><use xlink:href="#SvgjsG2424" transform="translate(432, 864) scale(3)" fill="rgba(219, 220, 221, 1)"></use><use xlink:href="#SvgjsG2425" transform="translate(432, 1008) scale(3)" fill="rgba(219, 220, 221, 1)"></use><use xlink:href="#SvgjsG2426" transform="translate(432, 1152) scale(3)" fill="rgba(219, 220, 221, 1)"></use><use xlink:href="#SvgjsG2427" transform="translate(432, 1296) scale(3)" fill="rgba(219, 220, 221, 1)"></use><use xlink:href="#SvgjsG2419" transform="translate(576, 0) scale(3)" fill="rgba(219, 220, 221, 1)"></use><use xlink:href="#SvgjsG2420" transform="translate(576, 144) scale(3)" fill="rgba(219, 220, 221, 1)"></use><use xlink:href="#SvgjsG2421" transform="translate(576, 288) scale(3)" fill="rgba(219, 220, 221, 1)"></use><use xlink:href="#SvgjsG2422" transform="translate(576, 432) scale(3)" fill="rgba(219, 220, 221, 1)"></use><use xlink:href="#SvgjsG2423" transform="translate(576, 576) scale(3)" fill="rgba(219, 220, 221, 1)"></use><use xlink:href="#SvgjsG2424" transform="translate(576, 720) scale(3)" fill="rgba(219, 220, 221, 1)"></use><use xlink:href="#SvgjsG2425" transform="translate(576, 864) scale(3)" fill="rgba(219, 220, 221, 1)"></use><use xlink:href="#SvgjsG2426" transform="translate(576, 1008) scale(3)" fill="rgba(219, 220, 221, 1)"></use><use xlink:href="#SvgjsG2427" transform="translate(576, 1152) scale(3)" fill="rgba(219, 220, 221, 1)"></use><use xlink:href="#SvgjsG2428" transform="translate(576, 1296) scale(3)" fill="rgba(219, 220, 221, 1)"></use><use xlink:href="#SvgjsG2420" transform="translate(720, 0) scale(3)" fill="rgba(219, 220, 221, 1)"></use><use xlink:href="#SvgjsG2421" transform="translate(720, 144) scale(3)" fill="rgba(219, 220, 221, 1)"></use><use xlink:href="#SvgjsG2422" transform="translate(720, 288) scale(3)" fill="rgba(219, 220, 221, 1)"></use><use xlink:href="#SvgjsG2423" transform="translate(720, 432) scale(3)" fill="rgba(219, 220, 221, 1)"></use><use xlink:href="#SvgjsG2424" transform="translate(720, 576) scale(3)" fill="rgba(219, 220, 221, 1)"></use><use xlink:href="#SvgjsG2425" transform="translate(720, 720) scale(3)" fill="rgba(219, 220, 221, 1)"></use><use xlink:href="#SvgjsG2426" transform="translate(720, 864) scale(3)" fill="rgba(219, 220, 221, 1)"></use><use xlink:href="#SvgjsG2427" transform="translate(720, 1008) scale(3)" fill="rgba(219, 220, 221, 1)"></use><use xlink:href="#SvgjsG2428" transform="translate(720, 1152) scale(3)" fill="rgba(219, 220, 221, 1)"></use><use xlink:href="#SvgjsG2415" transform="translate(720, 1296) scale(3)" fill="rgba(219, 220, 221, 1)"></use><use xlink:href="#SvgjsG2421" transform="translate(864, 0) scale(3)" fill="rgba(219, 220, 221, 1)"></use><use xlink:href="#SvgjsG2422" transform="translate(864, 144) scale(3)" fill="rgba(219, 220, 221, 1)"></use><use xlink:href="#SvgjsG2423" transform="translate(864, 288) scale(3)" fill="rgba(219, 220, 221, 1)"></use><use xlink:href="#SvgjsG2424" transform="translate(864, 432) scale(3)" fill="rgba(219, 220, 221, 1)"></use><use xlink:href="#SvgjsG2425" transform="translate(864, 576) scale(3)" fill="rgba(219, 220, 221, 1)"></use><use xlink:href="#SvgjsG2426" transform="translate(864, 720) scale(3)" fill="rgba(219, 220, 221, 1)"></use><use xlink:href="#SvgjsG2427" transform="translate(864, 864) scale(3)" fill="rgba(219, 220, 221, 1)"></use><use xlink:href="#SvgjsG2428" transform="translate(864, 1008) scale(3)" fill="rgba(219, 220, 221, 1)"></use><use xlink:href="#SvgjsG2415" transform="translate(864, 1152) scale(3)" fill="rgba(219, 220, 221, 1)"></use><use xlink:href="#SvgjsG2416" transform="translate(864, 1296) scale(3)" fill="rgba(219, 220, 221, 1)"></use><use xlink:href="#SvgjsG2422" transform="translate(1008, 0) scale(3)" fill="rgba(219, 220, 221, 1)"></use><use xlink:href="#SvgjsG2423" transform="translate(1008, 144) scale(3)" fill="rgba(219, 220, 221, 1)"></use><use xlink:href="#SvgjsG2424" transform="translate(1008, 288) scale(3)" fill="rgba(219, 220, 221, 1)"></use><use xlink:href="#SvgjsG2425" transform="translate(1008, 432) scale(3)" fill="rgba(219, 220, 221, 1)"></use><use xlink:href="#SvgjsG2426" transform="translate(1008, 576) scale(3)" fill="rgba(219, 220, 221, 1)"></use><use xlink:href="#SvgjsG2427" transform="translate(1008, 720) scale(3)" fill="rgba(219, 220, 221, 1)"></use><use xlink:href="#SvgjsG2428" transform="translate(1008, 864) scale(3)" fill="rgba(219, 220, 221, 1)"></use><use xlink:href="#SvgjsG2415" transform="translate(1008, 1008) scale(3)" fill="rgba(219, 220, 221, 1)"></use><use xlink:href="#SvgjsG2416" transform="translate(1008, 1152) scale(3)" fill="rgba(219, 220, 221, 1)"></use><use xlink:href="#SvgjsG2417" transform="translate(1008, 1296) scale(3)" fill="rgba(219, 220, 221, 1)"></use><use xlink:href="#SvgjsG2423" transform="translate(1152, 0) scale(3)" fill="rgba(219, 220, 221, 1)"></use><use xlink:href="#SvgjsG2424" transform="translate(1152, 144) scale(3)" fill="rgba(219, 220, 221, 1)"></use><use xlink:href="#SvgjsG2425" transform="translate(1152, 288) scale(3)" fill="rgba(219, 220, 221, 1)"></use><use xlink:href="#SvgjsG2426" transform="translate(1152, 432) scale(3)" fill="rgba(219, 220, 221, 1)"></use><use xlink:href="#SvgjsG2427" transform="translate(1152, 576) scale(3)" fill="rgba(219, 220, 221, 1)"></use><use xlink:href="#SvgjsG2428" transform="translate(1152, 720) scale(3)" fill="rgba(219, 220, 221, 1)"></use><use xlink:href="#SvgjsG2415" transform="translate(1152, 864) scale(3)" fill="rgba(219, 220, 221, 1)"></use><use xlink:href="#SvgjsG2416" transform="translate(1152, 1008) scale(3)" fill="rgba(219, 220, 221, 1)"></use><use xlink:href="#SvgjsG2417" transform="translate(1152, 1152) scale(3)" fill="rgba(219, 220, 221, 1)"></use><use xlink:href="#SvgjsG2418" transform="translate(1152, 1296) scale(3)" fill="rgba(219, 220, 221, 1)"></use><use xlink:href="#SvgjsG2424" transform="translate(1296, 0) scale(3)" fill="rgba(219, 220, 221, 1)"></use><use xlink:href="#SvgjsG2425" transform="translate(1296, 144) scale(3)" fill="rgba(219, 220, 221, 1)"></use><use xlink:href="#SvgjsG2426" transform="translate(1296, 288) scale(3)" fill="rgba(219, 220, 221, 1)"></use><use xlink:href="#SvgjsG2427" transform="translate(1296, 432) scale(3)" fill="rgba(219, 220, 221, 1)"></use><use xlink:href="#SvgjsG2428" transform="translate(1296, 576) scale(3)" fill="rgba(219, 220, 221, 1)"></use><use xlink:href="#SvgjsG2415" transform="translate(1296, 720) scale(3)" fill="rgba(219, 220, 221, 1)"></use><use xlink:href="#SvgjsG2416" transform="translate(1296, 864) scale(3)" fill="rgba(219, 220, 221, 1)"></use><use xlink:href="#SvgjsG2417" transform="translate(1296, 1008) scale(3)" fill="rgba(219, 220, 221, 1)"></use><use xlink:href="#SvgjsG2418" transform="translate(1296, 1152) scale(3)" fill="rgba(219, 220, 221, 1)"></use><use xlink:href="#SvgjsG2419" transform="translate(1296, 1296) scale(3)" fill="rgba(219, 220, 221, 1)"></use></g></defs></svg>